<svg version="1.1" id="Layer_1" xmlns="http://www.w3.org/2000/svg" xmlns:xlink="http://www.w3.org/1999/xlink" x="0px" y="0px"
	 width="100%" viewBox="0 0 512 512" enable-background="new 0 0 512 512" xml:space="preserve">
<path fill="#F6F1F1" opacity="1.000000" stroke="none" 
	d="
M317.000000,1.000000 
	C321.689240,1.000000 326.378510,1.000000 331.235016,1.293045 
	C335.285522,5.545888 339.620941,9.163572 342.939850,13.550325 
	C347.285797,19.294460 348.132904,26.313604 348.003113,33.403381 
	C347.943787,36.644951 347.993988,38.753632 352.736481,37.388985 
	C356.501617,36.305584 361.060272,36.671085 364.960480,37.633694 
	C373.551392,39.754032 380.279816,49.767765 381.037140,59.705894 
	C382.337250,76.767059 376.581543,91.547455 366.489563,104.818138 
	C364.109772,107.947540 365.285126,108.715828 367.907837,110.004524 
	C375.090454,113.533745 382.528778,116.689491 389.272217,120.935860 
	C404.902710,130.778427 418.646881,143.009872 429.916748,157.618591 
	C438.761597,169.083878 447.256683,180.958694 454.550415,193.444153 
	C462.954163,207.829712 469.709412,223.195892 473.714630,239.482864 
	C476.288849,249.950851 478.250580,260.597809 479.900085,271.255371 
	C481.097961,278.995087 481.618500,286.873199 481.902832,294.709137 
	C482.098419,300.098419 481.372131,305.521179 480.625000,310.961975 
	C474.465302,312.476440 468.299072,313.073059 463.115112,315.647614 
	C455.423279,319.467773 448.384552,324.623169 441.142517,329.325287 
	C412.444122,347.958618 383.779480,366.644012 355.091858,385.293945 
	C345.958252,391.231720 336.021820,395.086060 325.039276,393.936859 
	C312.385437,392.612823 299.795959,390.569672 287.234650,388.498596 
	C277.782349,386.940125 268.418488,384.845215 259.006744,382.617340 
	C258.571655,381.208160 258.104309,380.185394 257.724823,379.131042 
	C254.469833,370.087097 251.230743,361.037415 248.199371,351.726715 
	C256.112366,346.867249 263.850708,342.332581 271.505920,337.661743 
	C291.406433,325.519348 297.203674,302.545898 284.987244,283.759399 
	C284.582916,283.328247 284.298004,283.134491 284.021301,282.971436 
	C284.029510,283.002075 284.074005,282.956848 284.023346,282.616974 
	C283.525879,281.588104 283.158844,280.828461 282.620453,280.220520 
	C271.572876,267.745605 257.779022,264.644257 241.998566,267.870667 
	C242.916077,258.007843 243.865326,248.645401 244.738770,239.275879 
	C245.183533,234.504562 245.492020,229.720551 245.953308,224.602875 
	C259.404938,203.091583 266.402222,179.972473 267.481354,154.737427 
	C273.440094,144.408722 278.695496,134.006454 285.024872,124.304855 
	C291.433655,114.481552 299.718842,106.306076 311.278229,102.424034 
	C313.727386,101.601517 313.920502,100.408310 313.595123,97.971977 
	C312.196930,87.501701 310.999542,76.997574 310.050568,66.476768 
	C309.396576,59.226284 309.010162,51.929478 308.975616,44.651134 
	C308.935883,36.277775 309.457062,27.902939 309.657104,19.526894 
	C309.826660,12.428638 313.280457,6.670834 317.000000,1.000000 
M362.964783,323.772095 
	C362.967590,326.271332 362.908966,328.772430 362.985962,331.269379 
	C363.145691,336.449036 366.324646,339.923798 370.747833,339.850006 
	C375.010681,339.778839 378.038635,336.475311 378.244019,331.552063 
	C378.341156,329.223175 378.482666,326.863892 378.227478,324.560150 
	C377.844269,321.101349 379.125671,319.747650 382.598450,318.850372 
	C404.174408,313.275970 418.396545,290.636475 414.201965,268.882141 
	C411.007751,252.315994 399.971405,243.068939 384.705933,238.174072 
	C379.965698,236.654114 377.776245,234.681335 378.104004,229.176407 
	C378.697083,219.214279 378.271973,209.191544 378.271973,199.194107 
	C378.271973,195.906952 378.271973,192.619812 378.271973,187.473801 
	C383.860413,190.359955 388.402222,192.470337 392.697601,194.999298 
	C396.054657,196.975845 399.649170,197.979706 402.239471,194.969025 
	C404.011475,192.909378 404.857849,189.383835 404.713867,186.585907 
	C404.621338,184.787338 402.310883,182.470352 400.422760,181.509583 
	C393.398041,177.935120 386.136688,174.825745 378.276978,171.227127 
	C378.276978,170.782303 378.279022,169.300659 378.276398,167.819016 
	C378.273468,166.152802 378.335938,164.482910 378.248047,162.821060 
	C377.977264,157.701294 375.163330,154.816437 370.565063,154.863342 
	C366.085602,154.909027 363.144470,157.993637 362.993774,162.991013 
	C362.889526,166.447327 362.973694,169.909302 362.973694,173.380783 
	C361.662292,173.728073 360.873627,173.929718 360.089111,174.146515 
	C359.126617,174.412491 358.152069,174.646072 357.209351,174.970978 
	C342.469604,180.050812 334.313446,190.748383 332.319519,205.819229 
	C330.473846,219.769623 335.489105,231.015442 347.987213,238.319046 
	C351.575165,240.415741 355.164001,242.574814 358.958527,244.233795 
	C361.941589,245.538055 363.108612,247.121277 363.064301,250.546310 
	C362.848877,267.205902 362.974426,283.869812 362.953339,300.532166 
	C362.951538,301.945801 362.758759,303.359161 362.647980,304.863953 
	C354.574860,304.781006 347.956329,301.926849 341.640961,297.993683 
	C336.374268,294.713654 331.958801,295.267395 329.348969,299.270996 
	C326.593079,303.498688 328.080811,307.613953 333.655121,311.174011 
	C341.489990,316.177856 349.879211,319.518158 359.270111,320.226898 
	C360.558655,320.324158 361.732269,321.943604 362.964783,323.772095 
z"/>
<path fill="#000000" opacity="1.000000" stroke="none" 
	d="
M481.057861,310.928955 
	C481.372131,305.521179 482.098419,300.098419 481.902832,294.709137 
	C481.618500,286.873199 481.097961,278.995087 479.900085,271.255371 
	C478.250580,260.597809 476.288849,249.950851 473.714630,239.482864 
	C469.709412,223.195892 462.954163,207.829712 454.550415,193.444153 
	C447.256683,180.958694 438.761597,169.083878 429.916748,157.618591 
	C418.646881,143.009872 404.902710,130.778427 389.272217,120.935860 
	C382.528778,116.689491 375.090454,113.533745 367.907837,110.004524 
	C365.285126,108.715828 364.109772,107.947540 366.489563,104.818138 
	C376.581543,91.547455 382.337250,76.767059 381.037140,59.705894 
	C380.279816,49.767765 373.551392,39.754032 364.960480,37.633694 
	C361.060272,36.671085 356.501617,36.305584 352.736481,37.388985 
	C347.993988,38.753632 347.943787,36.644951 348.003113,33.403381 
	C348.132904,26.313604 347.285797,19.294460 342.939850,13.550325 
	C339.620941,9.163572 335.285522,5.545888 331.701141,1.293045 
	C392.282349,1.000000 452.564697,1.000000 513.000000,1.000000 
	C513.000000,113.020851 513.000000,225.041763 512.672974,337.838745 
	C511.904510,337.973907 511.174072,337.378662 511.064514,336.685303 
	C509.022430,323.760590 495.947235,311.797638 481.057861,310.928955 
z"/>
<path fill="#F1D0A5" opacity="1.000000" stroke="none" 
	d="
M480.625000,310.961975 
	C495.947235,311.797638 509.022430,323.760590 511.064514,336.685303 
	C511.174072,337.378662 511.904510,337.973907 512.672974,338.307434 
	C513.000000,341.692902 513.000000,345.385834 512.671021,349.235962 
	C511.893921,350.365356 511.377594,351.312408 511.008759,352.313751 
	C508.473053,359.197693 506.486206,366.439941 498.714447,369.894226 
	C496.701538,369.478729 495.083374,369.134552 493.448730,369.014557 
	C477.853943,367.869476 464.137970,373.888336 451.787262,382.065796 
	C427.856598,397.910461 404.812439,415.087433 381.090027,431.256104 
	C369.720032,439.005676 358.022034,446.459869 345.791290,452.715851 
	C328.603851,461.507263 309.913452,460.845978 291.185608,459.138123 
	C265.148834,456.763702 241.957230,447.098938 220.743805,432.357178 
	C202.313843,419.549744 187.243088,403.296417 173.090012,385.934387 
	C159.628021,369.420135 160.218842,340.171722 178.797791,325.898041 
	C186.795731,319.753448 195.698578,314.776001 204.263596,309.384705 
	C208.527496,306.700775 212.956696,304.279449 217.095383,301.865204 
	C220.864349,309.871887 224.059479,317.120422 227.651901,324.166412 
	C231.534088,331.780701 241.703232,337.160370 250.932526,333.466736 
	C255.075211,331.808807 259.001648,329.590118 262.964172,327.507812 
	C267.618835,325.061829 269.110352,321.264038 267.128967,317.298309 
	C264.978210,312.993591 261.055786,311.755676 256.147552,313.942352 
	C253.867096,314.958313 251.673172,316.167755 249.433823,317.276917 
	C244.048370,319.944427 242.201477,319.549042 239.608627,314.020844 
	C237.080368,308.630341 235.281113,302.902588 232.930069,297.422333 
	C231.770111,294.718475 232.755386,293.502441 235.099258,292.407257 
	C250.639328,285.146362 266.027588,277.199219 284.074005,282.956848 
	C284.074005,282.956848 284.029510,283.002075 284.133881,283.210663 
	C284.527710,283.611755 284.817200,283.804291 285.106659,283.996796 
	C297.203674,302.545898 291.406433,325.519348 271.505920,337.661743 
	C263.850708,342.332581 256.112366,346.867249 247.881454,351.863037 
	C235.121872,359.520782 222.892700,366.779449 209.316467,374.837646 
	C217.271393,376.253632 223.689865,377.480438 230.137985,378.524048 
	C239.752762,380.080231 249.388458,381.507172 259.015259,382.989105 
	C268.418488,384.845215 277.782349,386.940125 287.234650,388.498596 
	C299.795959,390.569672 312.385437,392.612823 325.039276,393.936859 
	C336.021820,395.086060 345.958252,391.231720 355.091858,385.293945 
	C383.779480,366.644012 412.444122,347.958618 441.142517,329.325287 
	C448.384552,324.623169 455.423279,319.467773 463.115112,315.647614 
	C468.299072,313.073059 474.465302,312.476440 480.625000,310.961975 
z"/>
<path fill="#000000" opacity="1.000000" stroke="none" 
	d="
M499.101532,370.069519 
	C506.486206,366.439941 508.473053,359.197693 511.008759,352.313751 
	C511.377594,351.312408 511.893921,350.365356 512.671021,349.696594 
	C513.000000,404.291290 513.000000,458.582611 513.000000,513.000000 
	C378.979126,513.000000 244.958221,513.000000 110.478241,512.612549 
	C114.404716,501.263733 116.721939,489.937317 116.429214,478.045593 
	C122.523239,475.853149 128.387009,474.030670 133.908707,471.470428 
	C144.403687,466.604218 155.162964,466.249237 166.347183,468.077271 
	C176.141647,469.678192 186.018967,470.789062 195.875092,471.990112 
	C202.686188,472.820099 209.538071,473.318878 216.345535,474.174225 
	C225.706512,475.350403 235.028458,476.840942 244.393539,477.979797 
	C253.961533,479.143341 263.572266,479.953186 273.144409,481.085724 
	C283.328461,482.290619 293.486725,483.711853 303.661041,485.001160 
	C309.966888,485.800232 316.272400,487.051483 322.594543,487.162720 
	C331.187347,487.313812 339.945435,487.444977 348.363251,486.007416 
	C361.585510,483.749329 370.570984,473.777557 380.570465,465.888702 
	C389.923645,458.509766 399.003174,450.785065 408.295349,443.327423 
	C421.105896,433.045990 433.993988,422.861023 446.865845,412.656189 
	C457.701508,404.065704 468.637543,395.599854 479.382904,386.898254 
	C486.096069,381.461914 492.537903,375.690521 499.101532,370.069519 
z"/>
<path fill="#DA387D" opacity="1.000000" stroke="none" 
	d="
M267.249146,154.971237 
	C266.402222,179.972473 259.404938,203.091583 245.667694,224.771454 
	C226.259720,253.005295 200.745682,271.640198 168.144653,280.383301 
	C165.652618,281.051575 163.270859,282.131134 160.411819,283.011383 
	C159.320358,283.005188 158.634430,282.900818 157.992493,283.024628 
	C141.801941,286.147400 125.491440,286.064758 109.465378,282.828613 
	C78.878731,276.652252 53.189495,261.827454 33.034550,237.627213 
	C15.727461,216.846420 5.258512,193.340759 2.918389,166.300629 
	C2.847762,165.484528 1.664513,164.764709 1.000000,164.000000 
	C1.000000,156.312424 1.000000,148.624832 1.409616,140.633453 
	C2.542896,136.892670 3.454658,133.483093 3.959902,130.014313 
	C7.412014,106.313683 17.176327,85.315689 32.507854,67.216133 
	C46.853558,50.280376 64.276161,37.186520 85.196274,28.843391 
	C101.404831,22.379271 118.269348,19.772495 135.422211,19.232368 
	C143.832230,18.967546 152.560379,20.075933 160.706635,22.223749 
	C172.752731,25.399784 184.965881,28.913830 196.100098,34.348644 
	C212.728821,42.465443 226.947479,54.245388 238.458710,68.967400 
	C249.298065,82.830124 257.924500,97.849968 262.234192,115.459961 
	C263.889893,128.885147 265.569519,141.928192 267.249146,154.971237 
M144.184753,268.964905 
	C148.108719,268.330322 152.047668,267.776245 155.954315,267.048645 
	C192.053970,260.325256 219.021118,240.584137 236.943298,208.846664 
	C250.092667,185.561096 254.373276,160.456970 250.147018,133.825897 
	C246.741043,112.363754 238.191757,93.286674 224.215591,76.944672 
	C201.393112,50.258934 171.894226,36.636299 136.902725,35.192051 
	C131.393082,34.964642 125.389641,35.501297 120.328285,37.495876 
	C94.517387,47.667431 74.719154,65.290222 60.713215,89.053856 
	C44.937744,115.819809 39.893009,144.774887 45.670025,175.385849 
	C51.177017,204.566010 65.287010,228.802780 88.235466,247.773651 
	C104.199883,260.970947 121.070419,271.864624 144.184753,268.964905 
z"/>
<path fill="#000000" opacity="1.000000" stroke="none" 
	d="
M1.000000,164.468658 
	C1.664513,164.764709 2.847762,165.484528 2.918389,166.300629 
	C5.258512,193.340759 15.727461,216.846420 33.034550,237.627213 
	C53.189495,261.827454 78.878731,276.652252 109.465378,282.828613 
	C125.491440,286.064758 141.801941,286.147400 157.992493,283.024628 
	C158.634430,282.900818 159.320358,283.005188 160.482880,283.476746 
	C161.031815,291.663940 161.083694,299.377686 160.944550,307.403564 
	C159.448486,308.358765 158.147537,309.010223 156.837769,309.643494 
	C143.443207,316.119537 129.576996,321.789124 116.776237,329.279572 
	C102.308235,337.745605 96.228035,351.791840 95.911858,368.517090 
	C90.836380,370.004852 85.819031,371.475555 80.500526,372.808685 
	C72.352966,365.213776 65.134308,356.895081 56.460133,350.573608 
	C49.608997,345.580688 41.042645,342.455353 31.938311,344.500946 
	C18.234081,347.580078 11.492853,357.569305 8.098475,370.092896 
	C5.019955,381.451111 3.134531,393.024506 4.927940,404.952698 
	C6.047192,412.397003 5.753304,420.102936 7.351374,427.416626 
	C11.666384,447.164673 18.151747,466.212463 28.379845,483.792786 
	C34.385044,494.114624 40.818272,504.138824 49.971615,512.049133 
	C49.982204,512.017761 49.916908,512.007324 49.952473,512.254272 
	C49.988037,512.501160 50.000000,513.000000 50.000000,513.000000 
	C33.684635,513.000000 17.369267,513.000000 1.000000,513.000000 
	C1.000000,396.979126 1.000000,280.958221 1.000000,164.468658 
z"/>
<path fill="#000000" opacity="1.000000" stroke="none" 
	d="
M262.258087,115.077820 
	C257.924500,97.849968 249.298065,82.830124 238.458710,68.967400 
	C226.947479,54.245388 212.728821,42.465443 196.100098,34.348644 
	C184.965881,28.913830 172.752731,25.399784 160.706635,22.223749 
	C152.560379,20.075933 143.832230,18.967546 135.422211,19.232368 
	C118.269348,19.772495 101.404831,22.379271 85.196274,28.843391 
	C64.276161,37.186520 46.853558,50.280376 32.507854,67.216133 
	C17.176327,85.315689 7.412014,106.313683 3.959902,130.014313 
	C3.454658,133.483093 2.542896,136.892670 1.409616,140.164825 
	C1.000000,93.711945 1.000000,47.423889 1.000000,1.000000 
	C103.687523,1.000000 206.375107,1.000000 309.822021,1.294751 
	C296.554932,10.034825 293.554596,23.496401 293.933228,37.922638 
	C287.950073,37.922638 281.682953,36.581703 276.308746,38.202209 
	C265.172485,41.560181 261.902405,51.483929 261.100555,61.834400 
	C259.733459,79.481865 267.769348,93.993942 277.828918,107.997192 
	C272.704346,110.327522 267.481201,112.702667 262.258087,115.077820 
z"/>
<path fill="#DF6B57" opacity="1.000000" stroke="none" 
	d="
M49.961025,512.080505 
	C40.818272,504.138824 34.385044,494.114624 28.379845,483.792786 
	C18.151747,466.212463 11.666384,447.164673 7.351374,427.416626 
	C5.753304,420.102936 6.047192,412.397003 4.927940,404.952698 
	C3.134531,393.024506 5.019955,381.451111 8.098475,370.092896 
	C11.492853,357.569305 18.234081,347.580078 31.938311,344.500946 
	C41.042645,342.455353 49.608997,345.580688 56.460133,350.573608 
	C65.134308,356.895081 72.352966,365.213776 80.558792,373.163818 
	C81.443588,374.687958 81.852425,375.801331 82.511230,376.739044 
	C103.877670,407.152252 115.089691,440.918640 116.044502,478.082428 
	C116.721939,489.937317 114.404716,501.263733 110.009583,512.612549 
	C91.979103,513.000000 73.958214,513.000000 55.743164,512.723511 
	C74.018570,509.505157 91.565933,503.929474 107.906929,494.645325 
	C114.854904,490.697815 115.160751,490.896637 112.985458,483.238464 
	C110.508003,474.516418 107.695038,465.889648 104.916580,456.859650 
	C96.452110,461.177673 88.678741,465.143127 80.586525,468.951508 
	C72.438652,463.486542 65.875656,465.823151 62.415230,475.074127 
	C56.076855,476.418274 50.145092,477.895233 44.137817,478.936554 
	C38.729450,479.874054 38.317829,480.435333 40.262459,485.611298 
	C43.567169,494.407379 46.735432,503.254700 49.961025,512.080505 
z"/>
<path fill="#EADFDA" opacity="1.000000" stroke="none" 
	d="
M262.234192,115.459961 
	C267.481201,112.702667 272.704346,110.327522 277.828918,107.997192 
	C267.769348,93.993942 259.733459,79.481865 261.100555,61.834400 
	C261.902405,51.483929 265.172485,41.560181 276.308746,38.202209 
	C281.682953,36.581703 287.950073,37.922638 293.933228,37.922638 
	C293.554596,23.496401 296.554932,10.034825 310.290680,1.294751 
	C312.041656,1.000000 314.083344,1.000000 316.562500,1.000000 
	C313.280457,6.670834 309.826660,12.428638 309.657104,19.526894 
	C309.457062,27.902939 308.935883,36.277775 308.975616,44.651134 
	C309.010162,51.929478 309.396576,59.226284 310.050568,66.476768 
	C310.999542,76.997574 312.196930,87.501701 313.595123,97.971977 
	C313.920502,100.408310 313.727386,101.601517 311.278229,102.424034 
	C299.718842,106.306076 291.433655,114.481552 285.024872,124.304855 
	C278.695496,134.006454 273.440094,144.408722 267.481384,154.737427 
	C265.569519,141.928192 263.889893,128.885147 262.234192,115.459961 
z"/>
<path fill="#DA397D" opacity="1.000000" stroke="none" 
	d="
M49.971615,512.049133 
	C46.735432,503.254700 43.567169,494.407379 40.262459,485.611298 
	C38.317829,480.435333 38.729450,479.874054 44.137817,478.936554 
	C50.145092,477.895233 56.076855,476.418274 62.473804,475.470520 
	C62.910522,480.888550 65.325256,484.374817 70.096642,485.959106 
	C74.504517,487.422760 78.325790,486.095825 81.155228,482.473969 
	C84.631027,478.024719 83.627281,473.516266 80.905380,469.108582 
	C88.678741,465.143127 96.452110,461.177673 104.916580,456.859650 
	C107.695038,465.889648 110.508003,474.516418 112.985458,483.238464 
	C115.160751,490.896637 114.854904,490.697815 107.906929,494.645325 
	C91.565933,503.929474 74.018570,509.505157 55.274506,512.723511 
	C53.933331,513.000000 52.866661,513.000000 51.287689,512.768372 
	C50.489227,512.360229 50.203075,512.183777 49.916916,512.007324 
	C49.916908,512.007324 49.982204,512.017761 49.971615,512.049133 
z"/>
<path fill="#DF6B57" opacity="1.000000" stroke="none" 
	d="
M49.952477,512.254272 
	C50.203075,512.183777 50.489227,512.360229 50.887691,512.768372 
	C51.000000,513.000000 50.500000,513.000000 50.250000,513.000000 
	C50.000000,513.000000 49.988037,512.501160 49.952477,512.254272 
z"/>
<path fill="#F1B986" opacity="1.000000" stroke="none" 
	d="
M116.429214,478.045593 
	C115.089691,440.918640 103.877670,407.152252 82.511230,376.739044 
	C81.852425,375.801331 81.443588,374.687958 80.859955,373.301392 
	C85.819031,371.475555 90.836380,370.004852 95.911858,368.517090 
	C96.228035,351.791840 102.308235,337.745605 116.776237,329.279572 
	C129.576996,321.789124 143.443207,316.119537 156.837769,309.643494 
	C158.147537,309.010223 159.448486,308.358765 161.313934,307.385193 
	C162.661743,306.816284 163.499146,306.680420 164.229294,306.324493 
	C190.158737,293.685150 216.078140,281.025208 241.998932,268.368134 
	C257.779022,264.644257 271.572876,267.745605 282.620453,280.220520 
	C283.158844,280.828461 283.525879,281.588104 284.023346,282.616974 
	C266.027588,277.199219 250.639328,285.146362 235.099258,292.407257 
	C232.755386,293.502441 231.770111,294.718475 232.930069,297.422333 
	C235.281113,302.902588 237.080368,308.630341 239.608627,314.020844 
	C242.201477,319.549042 244.048370,319.944427 249.433823,317.276917 
	C251.673172,316.167755 253.867096,314.958313 256.147552,313.942352 
	C261.055786,311.755676 264.978210,312.993591 267.128967,317.298309 
	C269.110352,321.264038 267.618835,325.061829 262.964172,327.507812 
	C259.001648,329.590118 255.075211,331.808807 250.932526,333.466736 
	C241.703232,337.160370 231.534088,331.780701 227.651901,324.166412 
	C224.059479,317.120422 220.864349,309.871887 217.095383,301.865204 
	C212.956696,304.279449 208.527496,306.700775 204.263596,309.384705 
	C195.698578,314.776001 186.795731,319.753448 178.797791,325.898041 
	C160.218842,340.171722 159.628021,369.420135 173.090012,385.934387 
	C187.243088,403.296417 202.313843,419.549744 220.743805,432.357178 
	C241.957230,447.098938 265.148834,456.763702 291.185608,459.138123 
	C309.913452,460.845978 328.603851,461.507263 345.791290,452.715851 
	C358.022034,446.459869 369.720032,439.005676 381.090027,431.256104 
	C404.812439,415.087433 427.856598,397.910461 451.787262,382.065796 
	C464.137970,373.888336 477.853943,367.869476 493.448730,369.014557 
	C495.083374,369.134552 496.701538,369.478729 498.714447,369.894226 
	C492.537903,375.690521 486.096069,381.461914 479.382904,386.898254 
	C468.637543,395.599854 457.701508,404.065704 446.865845,412.656189 
	C433.993988,422.861023 421.105896,433.045990 408.295349,443.327423 
	C399.003174,450.785065 389.923645,458.509766 380.570465,465.888702 
	C370.570984,473.777557 361.585510,483.749329 348.363251,486.007416 
	C339.945435,487.444977 331.187347,487.313812 322.594543,487.162720 
	C316.272400,487.051483 309.966888,485.800232 303.661041,485.001160 
	C293.486725,483.711853 283.328461,482.290619 273.144409,481.085724 
	C263.572266,479.953186 253.961533,479.143341 244.393539,477.979797 
	C235.028458,476.840942 225.706512,475.350403 216.345535,474.174225 
	C209.538071,473.318878 202.686188,472.820099 195.875092,471.990112 
	C186.018967,470.789062 176.141647,469.678192 166.347183,468.077271 
	C155.162964,466.249237 144.403687,466.604218 133.908707,471.470428 
	C128.387009,474.030670 122.523239,475.853149 116.429214,478.045593 
z"/>
<path fill="#746F6F" opacity="1.000000" stroke="none" 
	d="
M362.961945,323.315186 
	C361.732269,321.943604 360.558655,320.324158 359.270111,320.226898 
	C349.879211,319.518158 341.489990,316.177856 333.655121,311.174011 
	C328.080811,307.613953 326.593079,303.498688 329.348969,299.270996 
	C331.958801,295.267395 336.374268,294.713654 341.640961,297.993683 
	C347.956329,301.926849 354.574860,304.781006 362.647980,304.863953 
	C362.758759,303.359161 362.951538,301.945801 362.953339,300.532166 
	C362.974426,283.869812 362.848877,267.205902 363.064301,250.546310 
	C363.108612,247.121277 361.941589,245.538055 358.958527,244.233795 
	C355.164001,242.574814 351.575165,240.415741 347.987213,238.319046 
	C335.489105,231.015442 330.473846,219.769623 332.319519,205.819229 
	C334.313446,190.748383 342.469604,180.050812 357.209351,174.970978 
	C358.152069,174.646072 359.126617,174.412491 360.089111,174.146515 
	C360.873627,173.929718 361.662292,173.728073 362.973694,173.380783 
	C362.973694,169.909302 362.889526,166.447327 362.993774,162.991013 
	C363.144470,157.993637 366.085602,154.909027 370.565063,154.863342 
	C375.163330,154.816437 377.977264,157.701294 378.248047,162.821060 
	C378.335938,164.482910 378.273468,166.152802 378.276398,167.819016 
	C378.279022,169.300659 378.276978,170.782303 378.276978,171.227127 
	C386.136688,174.825745 393.398041,177.935120 400.422760,181.509583 
	C402.310883,182.470352 404.621338,184.787338 404.713867,186.585907 
	C404.857849,189.383835 404.011475,192.909378 402.239471,194.969025 
	C399.649170,197.979706 396.054657,196.975845 392.697601,194.999298 
	C388.402222,192.470337 383.860413,190.359955 378.271973,187.473801 
	C378.271973,192.619812 378.271973,195.906952 378.271973,199.194107 
	C378.271973,209.191544 378.697083,219.214279 378.104004,229.176407 
	C377.776245,234.681335 379.965698,236.654114 384.705933,238.174072 
	C399.971405,243.068939 411.007751,252.315994 414.201965,268.882141 
	C418.396545,290.636475 404.174408,313.275970 382.598450,318.850372 
	C379.125671,319.747650 377.844269,321.101349 378.227478,324.560150 
	C378.482666,326.863892 378.341156,329.223175 378.244019,331.552063 
	C378.038635,336.475311 375.010681,339.778839 370.747833,339.850006 
	C366.324646,339.923798 363.145691,336.449036 362.985962,331.269379 
	C362.908966,328.772430 362.967590,326.271332 362.961945,323.315186 
M399.074371,272.386475 
	C397.016876,261.636627 388.187958,253.430542 378.587891,253.396439 
	C378.587891,270.097076 378.587891,286.795258 378.587891,303.568420 
	C391.812225,300.510193 400.429443,287.594055 399.074371,272.386475 
M347.317871,209.676712 
	C348.010284,219.951065 352.529510,225.374954 362.650970,228.150589 
	C362.650970,215.496841 362.650970,202.824509 362.650970,190.094894 
	C354.154358,191.763443 349.482941,197.620468 347.317871,209.676712 
z"/>
<path fill="#EADED9" opacity="1.000000" stroke="none" 
	d="
M241.998566,267.870667 
	C216.078140,281.025208 190.158737,293.685150 164.229294,306.324493 
	C163.499146,306.680420 162.661743,306.816284 161.504959,307.073059 
	C161.083694,299.377686 161.031815,291.663940 160.908905,283.484863 
	C163.270859,282.131134 165.652618,281.051575 168.144653,280.383301 
	C200.745682,271.640198 226.259720,253.005295 245.576492,225.110870 
	C245.492020,229.720551 245.183533,234.504562 244.738770,239.275879 
	C243.865326,248.645401 242.916077,258.007843 241.998566,267.870667 
z"/>
<path fill="#EADFD9" opacity="1.000000" stroke="none" 
	d="
M259.006744,382.617340 
	C249.388458,381.507172 239.752762,380.080231 230.137985,378.524048 
	C223.689865,377.480438 217.271393,376.253632 209.316467,374.837646 
	C222.892700,366.779449 235.121872,359.520782 247.668945,352.125793 
	C251.230743,361.037415 254.469833,370.087097 257.724823,379.131042 
	C258.104309,380.185394 258.571655,381.208160 259.006744,382.617340 
z"/>
<path fill="#F1B986" opacity="1.000000" stroke="none" 
	d="
M284.987244,283.759399 
	C284.817200,283.804291 284.527710,283.611755 284.125671,283.179993 
	C284.298004,283.134491 284.582916,283.328247 284.987244,283.759399 
z"/>
<path fill="#DF6B58" opacity="1.000000" stroke="none" 
	d="
M143.713837,268.973328 
	C121.070419,271.864624 104.199883,260.970947 88.235466,247.773651 
	C65.287010,228.802780 51.177017,204.566010 45.670025,175.385849 
	C39.893009,144.774887 44.937744,115.819809 60.713215,89.053856 
	C74.719154,65.290222 94.517387,47.667431 120.328285,37.495876 
	C125.389641,35.501297 131.393082,34.964642 136.902725,35.192051 
	C171.894226,36.636299 201.393112,50.258934 224.215591,76.944672 
	C238.191757,93.286674 246.741043,112.363754 250.147018,133.825897 
	C254.373276,160.456970 250.092667,185.561096 236.943298,208.846664 
	C219.021118,240.584137 192.053970,260.325256 155.954315,267.048645 
	C152.047668,267.776245 148.108719,268.330322 143.713837,268.973328 
M159.580185,164.914185 
	C138.962631,176.899399 133.863586,204.572723 148.849854,223.149445 
	C161.422836,238.734711 182.843735,239.306824 196.242599,224.415222 
	C207.446640,211.962967 209.036209,192.053238 199.989182,177.488174 
	C191.062210,163.116318 175.970749,158.206848 159.580185,164.914185 
M127.574081,117.830231 
	C127.699600,110.439194 129.077408,102.803352 127.690361,95.708000 
	C124.787628,80.859253 112.207474,70.305168 98.284401,69.236076 
	C85.409325,68.247459 72.497841,76.850113 66.931404,90.475746 
	C61.984482,102.584930 62.644272,114.558861 69.044785,125.997719 
	C73.534019,134.020798 80.219406,139.618652 89.220726,141.948242 
	C105.478111,146.155762 121.074242,136.495438 127.574081,117.830231 
M115.516922,218.957001 
	C133.860535,175.246506 152.216614,131.541229 170.531479,87.818687 
	C172.741348,82.543068 171.399445,78.124100 167.288254,76.310600 
	C162.796677,74.329300 158.545990,76.378784 156.247986,81.850609 
	C137.828430,125.709534 119.429382,169.577087 101.065613,213.459381 
	C98.635994,219.265244 99.861549,223.370163 104.334175,225.391907 
	C108.665222,227.349640 112.399559,225.369675 115.516922,218.957001 
z"/>
<path fill="#FEFBFC" opacity="1.000000" stroke="none" 
	d="
M80.586525,468.951508 
	C83.627281,473.516266 84.631027,478.024719 81.155228,482.473969 
	C78.325790,486.095825 74.504517,487.422760 70.096642,485.959106 
	C65.325256,484.374817 62.910522,480.888550 62.847534,475.413666 
	C65.875656,465.823151 72.438652,463.486542 80.586525,468.951508 
z"/>
<path fill="#F2EDED" opacity="1.000000" stroke="none" 
	d="
M399.106934,272.790222 
	C400.429443,287.594055 391.812225,300.510193 378.587891,303.568420 
	C378.587891,286.795258 378.587891,270.097076 378.587891,253.396439 
	C388.187958,253.430542 397.016876,261.636627 399.106934,272.790222 
z"/>
<path fill="#F3EEEE" opacity="1.000000" stroke="none" 
	d="
M347.361450,209.271561 
	C349.482941,197.620468 354.154358,191.763443 362.650970,190.094894 
	C362.650970,202.824509 362.650970,215.496841 362.650970,228.150589 
	C352.529510,225.374954 348.010284,219.951065 347.361450,209.271561 
z"/>
<path fill="#FEFDFC" opacity="1.000000" stroke="none" 
	d="
M159.920090,164.738922 
	C175.970749,158.206848 191.062210,163.116318 199.989182,177.488174 
	C209.036209,192.053238 207.446640,211.962967 196.242599,224.415222 
	C182.843735,239.306824 161.422836,238.734711 148.849854,223.149445 
	C133.863586,204.572723 138.962631,176.899399 159.920090,164.738922 
M159.990295,212.377075 
	C167.949829,221.690231 177.318130,222.365311 184.713486,214.158630 
	C192.353867,205.680054 192.102753,190.204193 184.192642,182.059998 
	C177.699677,175.374939 168.573441,175.393433 162.042847,182.104904 
	C154.804428,189.543808 153.833054,201.202438 159.990295,212.377075 
z"/>
<path fill="#FEFDFC" opacity="1.000000" stroke="none" 
	d="
M127.421005,118.204506 
	C121.074242,136.495438 105.478111,146.155762 89.220726,141.948242 
	C80.219406,139.618652 73.534019,134.020798 69.044785,125.997719 
	C62.644272,114.558861 61.984482,102.584930 66.931404,90.475746 
	C72.497841,76.850113 85.409325,68.247459 98.284401,69.236076 
	C112.207474,70.305168 124.787628,80.859253 127.690361,95.708000 
	C129.077408,102.803352 127.699600,110.439194 127.421005,118.204506 
M104.205299,86.998238 
	C96.234406,83.144966 89.561150,84.537514 84.190247,91.174881 
	C77.308632,99.679192 77.571877,113.476486 84.772568,121.695534 
	C91.565125,129.448730 102.090034,129.273453 108.611893,121.298515 
	C116.938103,111.117218 115.295448,96.279922 104.205299,86.998238 
z"/>
<path fill="#FEFDFC" opacity="1.000000" stroke="none" 
	d="
M115.351738,219.297455 
	C112.399559,225.369675 108.665222,227.349640 104.334175,225.391907 
	C99.861549,223.370163 98.635994,219.265244 101.065613,213.459381 
	C119.429382,169.577087 137.828430,125.709534 156.247986,81.850609 
	C158.545990,76.378784 162.796677,74.329300 167.288254,76.310600 
	C171.399445,78.124100 172.741348,82.543068 170.531479,87.818687 
	C152.216614,131.541229 133.860535,175.246506 115.351738,219.297455 
z"/>
<path fill="#DF6D59" opacity="1.000000" stroke="none" 
	d="
M159.781006,212.070663 
	C153.833054,201.202438 154.804428,189.543808 162.042847,182.104904 
	C168.573441,175.393433 177.699677,175.374939 184.192642,182.059998 
	C192.102753,190.204193 192.353867,205.680054 184.713486,214.158630 
	C177.318130,222.365311 167.949829,221.690231 159.781006,212.070663 
z"/>
<path fill="#DF6D59" opacity="1.000000" stroke="none" 
	d="
M104.531334,87.192047 
	C115.295448,96.279922 116.938103,111.117218 108.611893,121.298515 
	C102.090034,129.273453 91.565125,129.448730 84.772568,121.695534 
	C77.571877,113.476486 77.308632,99.679192 84.190247,91.174881 
	C89.561150,84.537514 96.234406,83.144966 104.531334,87.192047 
z"/>
</svg>