<svg version="1.1" id="Layer_1" xmlns="http://www.w3.org/2000/svg" xmlns:xlink="http://www.w3.org/1999/xlink" x="0px" y="0px"
	 width="100%" viewBox="0 0 512 512" enable-background="new 0 0 512 512" xml:space="preserve">
<path fill="#000000" opacity="1.000000" stroke="none" 
	d="
M513.000000,173.000000 
	C513.000000,286.639038 513.000000,399.778076 513.000000,512.958557 
	C342.402618,512.958557 171.805222,512.958557 1.103918,512.958557 
	C1.103918,342.444336 1.103918,171.888565 1.103918,1.166402 
	C171.666534,1.166402 342.333252,1.166402 513.000000,1.166402 
	C513.000000,58.194736 513.000000,115.347366 513.000000,173.000000 
M9.011257,78.835114 
	C9.007338,211.975510 9.065195,345.115967 8.911532,478.256226 
	C8.894693,492.846802 21.169664,505.105774 35.779259,505.091064 
	C183.250214,504.942322 330.721466,504.941498 478.192413,505.092041 
	C492.858765,505.107025 505.101044,492.843170 505.085083,478.304810 
	C504.940613,346.664093 505.001129,215.023148 504.994324,83.382263 
	C504.994232,81.552666 504.900635,79.723068 504.997986,76.989731 
	C504.998413,63.326118 504.697021,49.654022 505.080719,36.001179 
	C505.496887,21.193239 492.807190,8.878225 477.980347,8.895681 
	C330.679138,9.069105 183.377609,9.000762 36.076180,9.000788 
	C35.243027,9.000788 34.409466,8.984121 33.576782,9.003959 
	C21.314304,9.296091 9.321805,20.652544 9.083277,32.916550 
	C8.791802,47.902702 9.100322,62.900520 9.011257,78.835114 
z"/>
<path fill="#E1EFFF" opacity="1.000000" stroke="none" 
	d="
M504.850677,77.893471 
	C504.900635,79.723068 504.994232,81.552666 504.994324,83.382263 
	C505.001129,215.023148 504.940613,346.664093 505.085083,478.304810 
	C505.101044,492.843170 492.858765,505.107025 478.192413,505.092041 
	C330.721466,504.941498 183.250214,504.942322 35.779259,505.091064 
	C21.169664,505.105774 8.894693,492.846802 8.911532,478.256226 
	C9.065195,345.115967 9.007338,211.975510 9.537588,78.358353 
	C174.992844,77.885551 339.921753,77.889511 504.850677,77.893471 
M277.929321,145.149384 
	C280.251068,139.298080 282.657379,133.478577 284.874512,127.587891 
	C288.096863,119.026535 283.387634,112.056229 274.300995,111.985832 
	C262.849274,111.897102 251.395996,111.910217 239.944031,111.980621 
	C230.511780,112.038612 225.833221,118.971466 229.193054,127.822044 
	C231.484390,133.857941 233.864929,139.860001 235.246613,145.985580 
	C231.786392,145.998749 228.326065,145.997650 224.865997,146.028244 
	C218.610214,146.083527 214.667587,149.090195 214.299377,154.061935 
	C213.953308,158.734787 217.278427,162.093338 222.904739,163.734451 
	C216.635574,168.644043 209.594604,172.835464 204.236908,178.593185 
	C185.555588,198.669342 176.060287,222.081192 182.084869,249.851410 
	C186.831818,271.732361 199.796280,287.827057 218.323822,299.615509 
	C216.337448,299.717163 214.351120,299.906952 212.364716,299.907623 
	C163.223465,299.924133 114.082207,299.920349 64.940948,299.921783 
	C63.275227,299.921814 61.609058,299.917053 59.943863,299.951477 
	C55.241627,300.048645 52.925697,303.148193 52.313091,307.149628 
	C51.717510,311.039886 53.479626,314.483276 57.426441,315.875061 
	C59.710278,316.680420 62.300854,316.900696 64.753563,316.901581 
	C192.853973,316.947906 320.954376,316.945526 449.054810,316.916260 
	C451.191803,316.915771 453.422455,316.843536 455.448303,316.252472 
	C461.861420,314.381378 464.137817,307.072357 459.379028,302.529846 
	C457.525726,300.760773 454.006317,300.034271 451.242432,300.026306 
	C401.102112,299.882446 350.961273,299.930023 300.820557,299.885895 
	C298.894928,299.884216 296.969788,299.373627 295.622284,298.730133 
	C297.171143,297.765411 298.770966,296.873169 300.261200,295.825073 
	C322.696564,280.046265 335.144409,258.468597 333.442719,231.020279 
	C331.601410,201.320648 316.284515,178.887589 291.379944,163.270447 
	C297.277069,161.537079 300.187378,158.196442 299.663879,153.761703 
	C299.091919,148.917099 295.289185,146.099640 289.226044,146.024826 
	C285.413727,145.977798 281.601501,145.926834 277.929321,145.149384 
M352.175812,468.711884 
	C354.762695,469.202698 357.347534,470.106689 359.936798,470.119568 
	C382.394012,470.231415 404.852112,470.209961 427.309662,470.138885 
	C429.427582,470.132202 431.663605,469.842255 433.639191,469.120789 
	C441.198364,466.360260 445.917908,458.412170 444.654266,450.985718 
	C443.160248,442.205078 436.362732,436.192322 427.256470,436.142944 
	C404.965668,436.022095 382.673706,436.058838 360.382446,436.121948 
	C351.756622,436.146362 345.144531,440.975220 343.038971,448.476288 
	C340.761932,456.588287 343.606537,463.266693 352.175812,468.711884 
M172.015686,399.985809 
	C170.377274,407.052673 176.797134,411.020477 183.814575,410.996918 
	C232.598297,410.833405 281.382874,410.924713 330.167053,410.866425 
	C332.451874,410.863678 334.918610,410.647308 336.980225,409.774109 
	C340.667023,408.212524 343.206787,405.017975 341.835419,401.070770 
	C340.891388,398.353577 338.254333,396.006348 335.890259,394.090729 
	C334.666168,393.098785 332.390167,393.162170 330.589050,393.160553 
	C281.471832,393.116486 232.354523,393.104034 183.237335,393.161072 
	C178.583450,393.166504 174.272079,394.289307 172.015686,399.985809 
M358.500000,367.995300 
	C386.644135,367.995117 414.788330,368.019287 442.932404,367.976624 
	C449.488007,367.966705 453.011780,364.907013 453.036652,359.521393 
	C453.062531,353.917450 449.754608,350.985229 443.177155,350.981995 
	C401.710358,350.961548 360.243530,350.964081 318.776733,350.979767 
	C312.438721,350.982178 307.989136,354.619904 308.080811,359.596619 
	C308.172333,364.563843 312.585388,367.978027 319.030792,367.988647 
	C331.853821,368.009827 344.676941,367.995148 358.500000,367.995300 
M206.500000,350.970062 
	C197.682373,350.976471 188.863983,350.917297 180.047424,351.016968 
	C175.635864,351.066803 172.803131,353.449219 172.065659,357.779480 
	C171.308289,362.226501 172.856766,365.723328 177.420425,367.190308 
	C179.117004,367.735687 180.986328,367.960571 182.777359,367.963013 
	C215.219666,368.007294 247.662033,368.004517 280.104401,367.987823 
	C287.226013,367.984131 291.090881,364.834595 290.996277,359.239227 
	C290.900970,353.604309 287.561340,350.979431 280.370544,350.975647 
	C256.080353,350.962830 231.790176,350.970245 206.500000,350.970062 
M430.492462,393.122345 
	C410.849030,393.122467 391.201538,392.917633 371.565918,393.309784 
	C367.990631,393.381165 363.770813,395.144562 361.176361,397.555634 
	C359.634186,398.988861 359.845154,403.510071 360.765076,406.113983 
	C362.202637,410.182953 366.291656,410.917175 370.327667,410.915283 
	C394.132843,410.903992 417.938049,410.927277 441.743134,410.875824 
	C443.539459,410.871948 445.421509,410.633789 447.113251,410.060516 
	C451.160156,408.689026 453.358856,405.907104 453.049866,401.402252 
	C452.756683,397.127319 450.426849,394.470398 446.373718,393.962067 
	C441.454102,393.345062 436.453552,393.373505 430.492462,393.122345 
M57.521412,410.943146 
	C58.461826,411.882172 59.402668,412.820770 60.342567,413.760284 
	C67.675346,421.089844 70.926559,421.118164 78.199196,413.865265 
	C85.256615,406.826904 92.337250,399.810974 99.324310,392.703217 
	C104.003174,387.943481 104.453705,382.854279 100.733513,379.134552 
	C97.009735,375.411255 91.870766,375.911652 87.153519,380.574280 
	C81.263031,386.396606 75.439873,392.287079 69.466438,398.269501 
	C67.892151,397.023499 66.695564,395.305664 65.310432,395.137085 
	C62.219723,394.760925 58.261662,394.050629 56.107830,395.554443 
	C53.991028,397.032379 52.795799,401.092407 52.842880,403.992645 
	C52.878094,406.161926 55.529613,408.288696 57.521412,410.943146 
M76.352089,348.864319 
	C74.440849,351.380096 72.529617,353.895874 70.618378,356.411682 
	C68.564034,354.793701 67.898979,354.324860 67.261414,353.821259 
	C62.484612,350.047943 57.842617,350.101685 54.430939,353.978271 
	C51.081879,357.783722 51.494080,361.999298 55.716393,366.360870 
	C58.150253,368.875031 60.584126,371.398651 63.159031,373.764496 
	C66.847946,377.153900 71.697418,377.381958 75.302116,373.893951 
	C83.923958,365.551239 92.412811,357.064606 100.753464,348.440826 
	C104.257149,344.818207 103.949623,339.503723 100.618980,336.296967 
	C97.248001,333.051361 92.342232,333.131500 88.551819,336.727966 
	C84.563377,340.512268 80.745949,344.476868 76.352089,348.864319 
M152.809967,407.279083 
	C155.699738,401.535614 154.612030,395.651306 149.550766,394.589783 
	C144.594055,393.550232 139.057129,393.637878 134.141617,394.792267 
	C131.965881,395.303223 129.329071,399.696625 129.393097,402.265442 
	C129.457947,404.868286 132.085037,408.794403 134.493073,409.677185 
	C140.401749,411.843231 146.805222,412.373352 152.809967,407.279083 
M135.273407,351.138336 
	C130.590073,352.644043 128.780563,356.191406 129.193527,360.717834 
	C129.570221,364.846863 133.738464,367.842712 138.536057,367.980377 
	C141.019211,368.051666 143.511917,368.096313 145.990280,367.964478 
	C150.830002,367.707062 154.769470,363.848236 154.784164,359.503204 
	C154.799026,355.106232 150.919815,351.224213 146.063080,351.013428 
	C142.756668,350.869934 139.437714,351.014954 135.273407,351.138336 
z"/>
<path fill="#CD4D61" opacity="1.000000" stroke="none" 
	d="
M504.924316,77.441605 
	C339.921753,77.889511 174.992844,77.885551 9.606649,77.887451 
	C9.100322,62.900520 8.791802,47.902702 9.083277,32.916550 
	C9.321805,20.652544 21.314304,9.296091 33.576782,9.003959 
	C34.409466,8.984121 35.243027,9.000788 36.076180,9.000788 
	C183.377609,9.000762 330.679138,9.069105 477.980347,8.895681 
	C492.807190,8.878225 505.496887,21.193239 505.080719,36.001179 
	C504.697021,49.654022 504.998413,63.326118 504.924316,77.441605 
M442.500000,52.010067 
	C451.640778,52.008751 460.781708,52.041847 469.922211,51.991550 
	C474.475891,51.966499 478.745544,48.047966 478.961823,43.856922 
	C479.178345,39.661179 475.142670,35.120842 470.470428,35.078510 
	C453.519989,34.924942 436.565979,34.898983 419.616119,35.080894 
	C413.741516,35.143944 410.876251,38.396725 410.986755,43.775421 
	C411.095734,49.078854 414.184174,51.939621 420.060883,51.992294 
	C427.206757,52.056339 434.353577,52.009163 442.500000,52.010067 
M120.497147,42.776394 
	C121.310265,49.774170 123.765297,52.028915 130.714981,52.110687 
	C133.039764,52.138039 135.371674,52.203228 137.689255,52.065216 
	C142.629715,51.771015 145.870560,48.522629 145.996078,43.897556 
	C146.118362,39.392155 142.914963,35.676716 138.158295,35.174953 
	C135.528397,34.897541 132.849503,35.071583 130.192657,35.065510 
	C125.306007,35.054337 121.896538,37.070057 120.497147,42.776394 
M36.091667,39.839264 
	C33.770882,46.714882 37.212227,51.870964 44.269440,52.032291 
	C46.925568,52.093006 49.584957,52.000332 52.241787,52.043575 
	C56.831188,52.118263 59.406273,49.283524 60.508781,45.439404 
	C61.634106,41.515751 59.669353,38.295322 56.254765,36.217484 
	C51.349113,33.232319 40.549538,34.926250 36.091667,39.839264 
M102.913826,41.112675 
	C99.852249,35.233250 90.546509,32.724827 83.252823,35.845135 
	C79.203224,37.577583 77.362373,40.738838 78.050575,45.035934 
	C78.741013,49.347050 81.496513,51.770199 85.899094,52.031826 
	C88.390152,52.179863 90.896606,52.118046 93.395134,52.082031 
	C100.527229,51.979221 103.123642,49.230118 102.913826,41.112675 
z"/>
<path fill="#935D4D" opacity="1.000000" stroke="none" 
	d="
M218.959351,299.099030 
	C199.796280,287.827057 186.831818,271.732361 182.084869,249.851410 
	C176.060287,222.081192 185.555588,198.669342 204.236908,178.593185 
	C209.594604,172.835464 216.635574,168.644043 223.565826,163.435257 
	C244.094574,163.110458 263.962219,163.067993 283.829865,163.082138 
	C286.127319,163.083771 288.424591,163.399994 290.721924,163.570343 
	C316.284515,178.887589 331.601410,201.320648 333.442719,231.020279 
	C335.144409,258.468597 322.696564,280.046265 300.261200,295.825073 
	C298.770966,296.873169 297.171143,297.765411 294.916107,298.936310 
	C292.408661,299.377380 290.607849,299.812500 288.806061,299.816559 
	C267.657318,299.864197 246.508408,299.868500 225.359711,299.814484 
	C223.225677,299.809052 221.092773,299.348419 218.959351,299.099030 
M235.555527,251.282501 
	C232.774323,255.438599 233.033295,259.644867 236.262268,263.210022 
	C238.899780,266.122192 242.290497,268.339020 245.198471,271.025208 
	C246.537445,272.262085 248.125687,273.727356 248.549255,275.361633 
	C249.724426,279.895874 252.528458,282.473206 256.964233,282.494598 
	C261.396973,282.515930 264.235840,279.975525 265.449799,275.448914 
	C265.890106,273.807129 267.329651,271.998260 268.817596,271.142242 
	C279.379364,265.065979 284.428192,254.476410 281.956543,242.980820 
	C279.645020,232.229691 269.953827,223.903885 258.529053,223.018097 
	C253.830231,222.653763 249.925690,221.286942 248.909561,216.089981 
	C248.134933,212.128265 249.260834,208.743881 253.136810,206.884644 
	C257.794891,204.650253 261.503937,206.199127 264.488342,210.100494 
	C264.690399,210.364624 264.909180,210.617996 265.138458,210.858994 
	C268.579742,214.475830 273.139709,215.074417 276.753662,212.387421 
	C280.434326,209.650818 281.462463,204.332794 278.329620,200.398911 
	C275.790314,197.210281 272.279694,194.810394 269.333527,191.924255 
	C267.804230,190.426117 265.944580,188.835464 265.320557,186.930710 
	C263.939423,182.714874 261.292206,180.277710 257.052765,180.247910 
	C252.812897,180.218124 250.155060,182.628510 248.694077,186.814438 
	C247.980148,188.859970 246.255997,191.014771 244.395111,192.119736 
	C235.432587,197.441544 230.038544,207.721085 231.622177,217.293869 
	C233.835693,230.674225 242.493073,238.682510 256.197876,239.971298 
	C260.777496,240.401993 264.279510,242.243317 265.105560,247.133621 
	C265.748322,250.938919 264.463287,254.053940 260.766876,255.793808 
	C256.274628,257.908234 252.760162,256.399078 249.772644,252.813141 
	C245.149994,247.264526 242.243744,246.839493 235.555527,251.282501 
z"/>
<path fill="#9FBCCF" opacity="1.000000" stroke="none" 
	d="
M218.641586,299.357269 
	C221.092773,299.348419 223.225677,299.809052 225.359711,299.814484 
	C246.508408,299.868500 267.657318,299.864197 288.806061,299.816559 
	C290.607849,299.812500 292.408661,299.377380 294.627167,299.121338 
	C296.969788,299.373627 298.894928,299.884216 300.820557,299.885895 
	C350.961273,299.930023 401.102112,299.882446 451.242432,300.026306 
	C454.006317,300.034271 457.525726,300.760773 459.379028,302.529846 
	C464.137817,307.072357 461.861420,314.381378 455.448303,316.252472 
	C453.422455,316.843536 451.191803,316.915771 449.054810,316.916260 
	C320.954376,316.945526 192.853973,316.947906 64.753563,316.901581 
	C62.300854,316.900696 59.710278,316.680420 57.426441,315.875061 
	C53.479626,314.483276 51.717510,311.039886 52.313091,307.149628 
	C52.925697,303.148193 55.241627,300.048645 59.943863,299.951477 
	C61.609058,299.917053 63.275227,299.921814 64.940948,299.921783 
	C114.082207,299.920349 163.223465,299.924133 212.364716,299.907623 
	C214.351120,299.906952 216.337448,299.717163 218.641586,299.357269 
z"/>
<path fill="#60C77E" opacity="1.000000" stroke="none" 
	d="
M351.833984,468.517120 
	C343.606537,463.266693 340.761932,456.588287 343.038971,448.476288 
	C345.144531,440.975220 351.756622,436.146362 360.382446,436.121948 
	C382.673706,436.058838 404.965668,436.022095 427.256470,436.142944 
	C436.362732,436.192322 443.160248,442.205078 444.654266,450.985718 
	C445.917908,458.412170 441.198364,466.360260 433.639191,469.120789 
	C431.663605,469.842255 429.427582,470.132202 427.309662,470.138885 
	C404.852112,470.209961 382.394012,470.231415 359.936798,470.119568 
	C357.347534,470.106689 354.762695,469.202698 351.833984,468.517120 
z"/>
<path fill="#A0BCCF" opacity="1.000000" stroke="none" 
	d="
M172.082062,399.586334 
	C174.272079,394.289307 178.583450,393.166504 183.237335,393.161072 
	C232.354523,393.104034 281.471832,393.116486 330.589050,393.160553 
	C332.390167,393.162170 334.666168,393.098785 335.890259,394.090729 
	C338.254333,396.006348 340.891388,398.353577 341.835419,401.070770 
	C343.206787,405.017975 340.667023,408.212524 336.980225,409.774109 
	C334.918610,410.647308 332.451874,410.863678 330.167053,410.866425 
	C281.382874,410.924713 232.598297,410.833405 183.814575,410.996918 
	C176.797134,411.020477 170.377274,407.052673 172.082062,399.586334 
z"/>
<path fill="#9EBBCE" opacity="1.000000" stroke="none" 
	d="
M358.000000,367.995300 
	C344.676941,367.995148 331.853821,368.009827 319.030792,367.988647 
	C312.585388,367.978027 308.172333,364.563843 308.080811,359.596619 
	C307.989136,354.619904 312.438721,350.982178 318.776733,350.979767 
	C360.243530,350.964081 401.710358,350.961548 443.177155,350.981995 
	C449.754608,350.985229 453.062531,353.917450 453.036652,359.521393 
	C453.011780,364.907013 449.488007,367.966705 442.932404,367.976624 
	C414.788330,368.019287 386.644135,367.995117 358.000000,367.995300 
z"/>
<path fill="#9EBBCE" opacity="1.000000" stroke="none" 
	d="
M207.000000,350.970032 
	C231.790176,350.970245 256.080353,350.962830 280.370544,350.975647 
	C287.561340,350.979431 290.900970,353.604309 290.996277,359.239227 
	C291.090881,364.834595 287.226013,367.984131 280.104401,367.987823 
	C247.662033,368.004517 215.219666,368.007294 182.777359,367.963013 
	C180.986328,367.960571 179.117004,367.735687 177.420425,367.190308 
	C172.856766,365.723328 171.308289,362.226501 172.065659,357.779480 
	C172.803131,353.449219 175.635864,351.066803 180.047424,351.016968 
	C188.863983,350.917297 197.682373,350.976471 207.000000,350.970032 
z"/>
<path fill="#935D4D" opacity="1.000000" stroke="none" 
	d="
M236.205566,145.877197 
	C233.864929,139.860001 231.484390,133.857941 229.193054,127.822044 
	C225.833221,118.971466 230.511780,112.038612 239.944031,111.980621 
	C251.395996,111.910217 262.849274,111.897102 274.300995,111.985832 
	C283.387634,112.056229 288.096863,119.026535 284.874512,127.587891 
	C282.657379,133.478577 280.251068,139.298080 277.407471,145.552124 
	C263.325592,145.928986 249.765579,145.903091 236.205566,145.877197 
z"/>
<path fill="#A0BCCF" opacity="1.000000" stroke="none" 
	d="
M430.990234,393.122528 
	C436.453552,393.373505 441.454102,393.345062 446.373718,393.962067 
	C450.426849,394.470398 452.756683,397.127319 453.049866,401.402252 
	C453.358856,405.907104 451.160156,408.689026 447.113251,410.060516 
	C445.421509,410.633789 443.539459,410.871948 441.743134,410.875824 
	C417.938049,410.927277 394.132843,410.903992 370.327667,410.915283 
	C366.291656,410.917175 362.202637,410.182953 360.765076,406.113983 
	C359.845154,403.510071 359.634186,398.988861 361.176361,397.555634 
	C363.770813,395.144562 367.990631,393.381165 371.565918,393.309784 
	C391.201538,392.917633 410.849030,393.122467 430.990234,393.122528 
z"/>
<path fill="#FDE05F" opacity="1.000000" stroke="none" 
	d="
M235.726089,145.931396 
	C249.765579,145.903091 263.325592,145.928986 277.337402,145.916260 
	C281.601501,145.926834 285.413727,145.977798 289.226044,146.024826 
	C295.289185,146.099640 299.091919,148.917099 299.663879,153.761703 
	C300.187378,158.196442 297.277069,161.537079 291.050934,163.420395 
	C288.424591,163.399994 286.127319,163.083771 283.829865,163.082138 
	C263.962219,163.067993 244.094574,163.110458 223.788742,163.170105 
	C217.278427,162.093338 213.953308,158.734787 214.299377,154.061935 
	C214.667587,149.090195 218.610214,146.083527 224.865997,146.028244 
	C228.326065,145.997650 231.786392,145.998749 235.726089,145.931396 
z"/>
<path fill="#61C87F" opacity="1.000000" stroke="none" 
	d="
M57.268784,410.688782 
	C55.529613,408.288696 52.878094,406.161926 52.842880,403.992645 
	C52.795799,401.092407 53.991028,397.032379 56.107830,395.554443 
	C58.261662,394.050629 62.219723,394.760925 65.310432,395.137085 
	C66.695564,395.305664 67.892151,397.023499 69.466438,398.269501 
	C75.439873,392.287079 81.263031,386.396606 87.153519,380.574280 
	C91.870766,375.911652 97.009735,375.411255 100.733513,379.134552 
	C104.453705,382.854279 104.003174,387.943481 99.324310,392.703217 
	C92.337250,399.810974 85.256615,406.826904 78.199196,413.865265 
	C70.926559,421.118164 67.675346,421.089844 60.342567,413.760284 
	C59.402668,412.820770 58.461826,411.882172 57.268784,410.688782 
z"/>
<path fill="#61C87F" opacity="1.000000" stroke="none" 
	d="
M76.602936,348.613495 
	C80.745949,344.476868 84.563377,340.512268 88.551819,336.727966 
	C92.342232,333.131500 97.248001,333.051361 100.618980,336.296967 
	C103.949623,339.503723 104.257149,344.818207 100.753464,348.440826 
	C92.412811,357.064606 83.923958,365.551239 75.302116,373.893951 
	C71.697418,377.381958 66.847946,377.153900 63.159031,373.764496 
	C60.584126,371.398651 58.150253,368.875031 55.716393,366.360870 
	C51.494080,361.999298 51.081879,357.783722 54.430939,353.978271 
	C57.842617,350.101685 62.484612,350.047943 67.261414,353.821259 
	C67.898979,354.324860 68.564034,354.793701 70.618378,356.411682 
	C72.529617,353.895874 74.440849,351.380096 76.602936,348.613495 
z"/>
<path fill="#A0BCCF" opacity="1.000000" stroke="none" 
	d="
M152.583679,407.583862 
	C146.805222,412.373352 140.401749,411.843231 134.493073,409.677185 
	C132.085037,408.794403 129.457947,404.868286 129.393097,402.265442 
	C129.329071,399.696625 131.965881,395.303223 134.141617,394.792267 
	C139.057129,393.637878 144.594055,393.550232 149.550766,394.589783 
	C154.612030,395.651306 155.699738,401.535614 152.583679,407.583862 
z"/>
<path fill="#9FBCCF" opacity="1.000000" stroke="none" 
	d="
M135.698883,351.084656 
	C139.437714,351.014954 142.756668,350.869934 146.063080,351.013428 
	C150.919815,351.224213 154.799026,355.106232 154.784164,359.503204 
	C154.769470,363.848236 150.830002,367.707062 145.990280,367.964478 
	C143.511917,368.096313 141.019211,368.051666 138.536057,367.980377 
	C133.738464,367.842712 129.570221,364.846863 129.193527,360.717834 
	C128.780563,356.191406 130.590073,352.644043 135.698883,351.084656 
z"/>
<path fill="#A53C50" opacity="1.000000" stroke="none" 
	d="
M442.000000,52.010078 
	C434.353577,52.009163 427.206757,52.056339 420.060883,51.992294 
	C414.184174,51.939621 411.095734,49.078854 410.986755,43.775421 
	C410.876251,38.396725 413.741516,35.143944 419.616119,35.080894 
	C436.565979,34.898983 453.519989,34.924942 470.470428,35.078510 
	C475.142670,35.120842 479.178345,39.661179 478.961823,43.856922 
	C478.745544,48.047966 474.475891,51.966499 469.922211,51.991550 
	C460.781708,52.041847 451.640778,52.008751 442.000000,52.010078 
z"/>
<path fill="#87F9A8" opacity="1.000000" stroke="none" 
	d="
M120.586967,42.416935 
	C121.896538,37.070057 125.306007,35.054337 130.192657,35.065510 
	C132.849503,35.071583 135.528397,34.897541 138.158295,35.174953 
	C142.914963,35.676716 146.118362,39.392155 145.996078,43.897556 
	C145.870560,48.522629 142.629715,51.771015 137.689255,52.065216 
	C135.371674,52.203228 133.039764,52.138039 130.714981,52.110687 
	C123.765297,52.028915 121.310265,49.774170 120.586967,42.416935 
z"/>
<path fill="#FE879A" opacity="1.000000" stroke="none" 
	d="
M36.285851,39.506123 
	C40.549538,34.926250 51.349113,33.232319 56.254765,36.217484 
	C59.669353,38.295322 61.634106,41.515751 60.508781,45.439404 
	C59.406273,49.283524 56.831188,52.118263 52.241787,52.043575 
	C49.584957,52.000332 46.925568,52.093006 44.269440,52.032291 
	C37.212227,51.870964 33.770882,46.714882 36.285851,39.506123 
z"/>
<path fill="#FCDD5E" opacity="1.000000" stroke="none" 
	d="
M102.981224,41.516689 
	C103.123642,49.230118 100.527229,51.979221 93.395134,52.082031 
	C90.896606,52.118046 88.390152,52.179863 85.899094,52.031826 
	C81.496513,51.770199 78.741013,49.347050 78.050575,45.035934 
	C77.362373,40.738838 79.203224,37.577583 83.252823,35.845135 
	C90.546509,32.724827 99.852249,35.233250 102.981224,41.516689 
z"/>
<path fill="#FBDE5E" opacity="1.000000" stroke="none" 
	d="
M235.826874,250.998749 
	C242.243744,246.839493 245.149994,247.264526 249.772644,252.813141 
	C252.760162,256.399078 256.274628,257.908234 260.766876,255.793808 
	C264.463287,254.053940 265.748322,250.938919 265.105560,247.133621 
	C264.279510,242.243317 260.777496,240.401993 256.197876,239.971298 
	C242.493073,238.682510 233.835693,230.674225 231.622177,217.293869 
	C230.038544,207.721085 235.432587,197.441544 244.395111,192.119736 
	C246.255997,191.014771 247.980148,188.859970 248.694077,186.814438 
	C250.155060,182.628510 252.812897,180.218124 257.052765,180.247910 
	C261.292206,180.277710 263.939423,182.714874 265.320557,186.930710 
	C265.944580,188.835464 267.804230,190.426117 269.333527,191.924255 
	C272.279694,194.810394 275.790314,197.210281 278.329620,200.398911 
	C281.462463,204.332794 280.434326,209.650818 276.753662,212.387421 
	C273.139709,215.074417 268.579742,214.475830 265.138458,210.858994 
	C264.909180,210.617996 264.690399,210.364624 264.488342,210.100494 
	C261.503937,206.199127 257.794891,204.650253 253.136810,206.884644 
	C249.260834,208.743881 248.134933,212.128265 248.909561,216.089981 
	C249.925690,221.286942 253.830231,222.653763 258.529053,223.018097 
	C269.953827,223.903885 279.645020,232.229691 281.956543,242.980820 
	C284.428192,254.476410 279.379364,265.065979 268.817596,271.142242 
	C267.329651,271.998260 265.890106,273.807129 265.449799,275.448914 
	C264.235840,279.975525 261.396973,282.515930 256.964233,282.494598 
	C252.528458,282.473206 249.724426,279.895874 248.549255,275.361633 
	C248.125687,273.727356 246.537445,272.262085 245.198471,271.025208 
	C242.290497,268.339020 238.899780,266.122192 236.262268,263.210022 
	C233.033295,259.644867 232.774323,255.438599 235.826874,250.998749 
z"/>
</svg>